<svg id="visual" viewBox="0 0 960 540" width="960" height="540" xmlns="http://www.w3.org/2000/svg" xmlns:xlink="http://www.w3.org/1999/xlink" version="1.1"><rect width="960" height="540" fill="#e0eae0"></rect><g><g transform="translate(88 24)"><path d="M16.4 -14.5C20.2 -8.3 21.7 -1.5 20.7 5.5C19.7 12.5 16.4 19.8 10.6 22.9C4.8 26.1 -3.4 25.1 -10.1 21.6C-16.9 18.1 -22.2 12.2 -23.4 5.6C-24.7 -0.9 -22 -8.2 -17.4 -14.5C-12.8 -20.9 -6.4 -26.4 -0.1 -26.3C6.3 -26.3 12.6 -20.6 16.4 -14.5Z" fill="#1d9bf0"></path></g><g transform="translate(814 406)"><path d="M13.7 -11.2C17.2 -6.6 19.1 -0.9 17.4 2.9C15.7 6.7 10.4 8.7 6.1 9.7C1.7 10.6 -1.7 10.6 -6.2 9.6C-10.7 8.7 -16.3 6.8 -18.1 3C-19.8 -0.8 -17.7 -6.6 -14 -11.3C-10.4 -16 -5.2 -19.6 0 -19.5C5.1 -19.5 10.2 -15.9 13.7 -11.2Z" fill="#1d9bf0"></path></g><g transform="translate(893 508)"><path d="M8.8 -4.1C13 -1.7 19.2 2 19.6 6.2C20.1 10.4 14.8 15.1 8.7 18C2.6 20.9 -4.3 22 -8.9 19.4C-13.6 16.8 -16.1 10.5 -16.9 4.6C-17.7 -1.4 -16.8 -7 -13.7 -9.2C-10.6 -11.3 -5.3 -9.9 -1.5 -8.7C2.3 -7.5 4.6 -6.5 8.8 -4.1Z" fill="#1d9bf0"></path></g><g transform="translate(667 152)"><path d="M12 -10.6C14.2 -6.9 13.5 -2 11.9 1.9C10.4 5.7 7.9 8.5 4.3 10.9C0.8 13.4 -3.9 15.5 -6.6 14.1C-9.4 12.6 -10.3 7.6 -10 3.8C-9.6 0 -8.1 -2.6 -6.2 -6.3C-4.4 -10 -2.2 -14.8 1.4 -15.9C4.9 -17 9.9 -14.4 12 -10.6Z" fill="#1d9bf0"></path></g><g transform="translate(142 479)"><path d="M7.1 -6.5C8.9 -3.5 9.8 -0.5 9.4 2.6C9.1 5.7 7.5 8.9 4.9 10.2C2.3 11.4 -1.3 10.7 -4.4 9.2C-7.6 7.7 -10.5 5.3 -11.9 1.9C-13.3 -1.5 -13.3 -6.1 -11.1 -9.3C-8.9 -12.4 -4.5 -14.1 -0.9 -13.4C2.7 -12.7 5.4 -9.6 7.1 -6.5Z" fill="#1d9bf0"></path></g><g transform="translate(469 184)"><path d="M12.7 -10.1C14.2 -8.3 11.6 -3.1 10.1 1.8C8.5 6.7 8.1 11.3 4.9 14.5C1.7 17.7 -4.3 19.6 -7.1 17.3C-9.9 15 -9.6 8.5 -9.5 3.7C-9.4 -1.2 -9.5 -4.4 -8 -6.3C-6.4 -8.2 -3.2 -8.7 1.2 -9.7C5.6 -10.6 11.2 -12 12.7 -10.1Z" fill="#1d9bf0"></path></g><g transform="translate(226 420)"><path d="M12.1 -7.7C15.8 -5 19.1 0.1 17.9 3.6C16.7 7.1 11 9 5.6 11.5C0.3 14.1 -4.8 17.2 -7.4 15.8C-10 14.3 -10.2 8.3 -11.7 2.4C-13.3 -3.5 -16.1 -9.3 -14.4 -11.5C-12.7 -13.8 -6.3 -12.4 -1.1 -11.5C4.2 -10.7 8.4 -10.3 12.1 -7.7Z" fill="#1d9bf0"></path></g><g transform="translate(244 93)"><path d="M16.3 -10.6C19.9 -8.4 21 -1.7 18.8 2.8C16.6 7.3 11.1 9.6 6 11.9C0.8 14.2 -4.2 16.6 -7.5 15.2C-10.9 13.7 -12.7 8.5 -13.3 3.7C-13.8 -1.1 -13.1 -5.5 -10.7 -7.4C-8.2 -9.3 -4.1 -8.7 1.1 -9.6C6.3 -10.5 12.6 -12.8 16.3 -10.6Z" fill="#1d9bf0"></path></g><g transform="translate(710 58)"><path d="M5.5 -4.4C6.4 -3.3 5.8 -1 5.7 1.9C5.5 4.9 5.7 8.6 4.4 9.4C3 10.1 0.2 7.9 -3.9 6.5C-8 5.2 -13.3 4.7 -14.9 2.1C-16.5 -0.4 -14.4 -5.1 -11.3 -6.7C-8.2 -8.3 -4.1 -6.9 -0.9 -6.1C2.3 -5.4 4.6 -5.5 5.5 -4.4Z" fill="#1d9bf0"></path></g><g transform="translate(85 256)"><path d="M17 -14.3C19.4 -10.7 16.7 -3.7 14.9 3.2C13.2 10.2 12.5 17.3 9.4 18.3C6.3 19.4 0.9 14.4 -5 11.2C-11 8.1 -17.4 6.8 -19.9 2.6C-22.4 -1.5 -20.9 -8.5 -16.9 -12.5C-12.9 -16.6 -6.5 -17.7 0.5 -18C7.4 -18.4 14.7 -18 17 -14.3Z" fill="#1d9bf0"></path></g><g transform="translate(771 283)"><path d="M11.7 -7.7C14.2 -6.2 14.6 -1.4 13.1 2C11.5 5.4 8.1 7.5 4.5 9C1 10.6 -2.6 11.6 -6.1 10.7C-9.7 9.8 -13.3 6.8 -14.2 3.2C-15.1 -0.5 -13.3 -4.9 -10.5 -6.4C-7.7 -8 -3.8 -6.7 0.4 -7C4.6 -7.3 9.2 -9.2 11.7 -7.7Z" fill="#1d9bf0"></path></g><g transform="translate(294 148)"><path d="M13 -12.9C14.6 -8.3 12.2 -3 10.2 0.9C8.1 4.8 6.4 7.3 3.5 9.7C0.5 12.2 -3.8 14.4 -6.5 13.2C-9.2 12 -10.3 7.3 -12.2 2C-14 -3.4 -16.7 -9.4 -14.8 -14C-12.9 -18.7 -6.4 -22 -0.4 -21.7C5.7 -21.4 11.4 -17.5 13 -12.9Z" fill="#1d9bf0"></path></g><g transform="translate(617 310)"><path d="M4.4 -4.6C6 -1.6 7.8 0.3 8 2.9C8.3 5.4 7 8.7 5.1 9.1C3.1 9.5 0.5 7 -2 5.3C-4.5 3.7 -6.8 2.9 -7.8 1C-8.9 -0.9 -8.7 -3.8 -7.2 -6.9C-5.7 -9.9 -2.8 -13 -0.7 -12.4C1.4 -11.8 2.9 -7.6 4.4 -4.6Z" fill="#1d9bf0"></path></g><g transform="translate(807 121)"><path d="M15.7 -10.4C18.9 -8.6 19 -2.1 16.9 2.7C14.9 7.5 10.8 10.7 6.1 13.1C1.4 15.5 -3.9 17.3 -8.2 15.7C-12.6 14.1 -16 9.3 -17.4 3.8C-18.8 -1.7 -18.1 -7.8 -14.9 -9.7C-11.6 -11.5 -5.8 -9.1 0.2 -9.3C6.3 -9.4 12.6 -12.2 15.7 -10.4Z" fill="#1d9bf0"></path></g><g transform="translate(557 135)"><path d="M10.7 -6.9C14.8 -3.4 19.7 1.1 19.3 5.1C18.9 9.1 13.3 12.6 7.9 14.5C2.4 16.4 -2.9 16.7 -6.9 14.6C-11 12.6 -13.9 8.2 -15.8 2.8C-17.7 -2.7 -18.7 -9.2 -15.9 -12.4C-13.1 -15.6 -6.6 -15.4 -1.6 -14.1C3.3 -12.8 6.6 -10.3 10.7 -6.9Z" fill="#1d9bf0"></path></g><g transform="translate(209 201)"><path d="M15.7 -12.4C18.6 -8.8 18.1 -2.4 15.8 1.9C13.5 6.2 9.3 8.5 5.9 8.8C2.5 9.1 -0.2 7.5 -3.9 6.4C-7.6 5.3 -12.3 4.6 -13.7 2.1C-15.1 -0.4 -13.2 -4.7 -10.3 -8.2C-7.5 -11.8 -3.8 -14.6 1.3 -15.7C6.4 -16.7 12.7 -16 15.7 -12.4Z" fill="#1d9bf0"></path></g><g transform="translate(176 291)"><path d="M7.8 -8C10.2 -3.1 12.4 0.1 12.4 3.8C12.3 7.6 10 11.8 6.6 13.3C3.1 14.8 -1.5 13.7 -6.2 11.8C-11 10 -16 7.4 -16.7 4C-17.3 0.6 -13.5 -3.6 -10 -8.7C-6.5 -13.9 -3.3 -20 -0.3 -19.8C2.7 -19.5 5.3 -13 7.8 -8Z" fill="#1d9bf0"></path></g><g transform="translate(385 411)"><path d="M7.4 -4.9C10.3 -2.3 13.8 0.8 14.1 4.6C14.3 8.4 11.3 12.8 7.9 13.2C4.5 13.6 0.7 10 -2.5 7.6C-5.8 5.1 -8.4 3.8 -10.9 0.4C-13.4 -3.1 -15.7 -8.7 -13.9 -11.1C-12 -13.5 -6 -12.5 -1.9 -11C2.3 -9.6 4.6 -7.5 7.4 -4.9Z" fill="#1d9bf0"></path></g><g transform="translate(532 455)"><path d="M13.9 -9.6C17.2 -7 18.4 -1.3 16.3 2C14.2 5.3 8.8 6.1 4.7 7C0.7 7.8 -2 8.7 -4.1 7.9C-6.1 7.1 -7.6 4.6 -9.3 1C-11 -2.6 -12.9 -7.2 -11.4 -9.4C-9.9 -11.6 -4.9 -11.4 0.2 -11.6C5.3 -11.7 10.6 -12.2 13.9 -9.6Z" fill="#1d9bf0"></path></g><g transform="translate(301 23)"><path d="M11 -8.7C12.1 -7.4 9.3 -3 7.4 0.3C5.6 3.5 4.6 5.5 2.2 8C-0.2 10.5 -4 13.4 -7.8 12.8C-11.7 12.3 -15.6 8.4 -15.1 5C-14.7 1.5 -10 -1.4 -6.8 -3.1C-3.6 -4.9 -1.8 -5.6 1.6 -6.9C5 -8.1 9.9 -10 11 -8.7Z" fill="#1d9bf0"></path></g><g transform="translate(955 389)"><path d="M8.8 -7.4C10.8 -4.4 11.6 -0.8 11.1 2.9C10.5 6.5 8.6 10.2 5.3 12.2C2 14.3 -2.7 14.8 -5.6 12.9C-8.6 11 -9.8 6.8 -9.7 3.3C-9.7 -0.2 -8.4 -2.9 -6.6 -5.9C-4.7 -8.8 -2.4 -11.9 0.5 -12.3C3.4 -12.7 6.7 -10.4 8.8 -7.4Z" fill="#1d9bf0"></path></g><g transform="translate(948 24)"><path d="M7.2 -6C10.3 -1.7 14.7 1.3 15 4.9C15.3 8.4 11.7 12.5 7.8 13.1C4 13.7 0.1 10.9 -4.9 8.9C-9.8 7 -15.8 6 -17.9 2.4C-20.1 -1.2 -18.5 -7.3 -14.9 -11.7C-11.3 -16 -5.6 -18.6 -1.8 -17.1C2 -15.7 4 -10.2 7.2 -6Z" fill="#1d9bf0"></path></g><g transform="translate(16 75)"><path d="M6.1 -6.7C7.1 -3.5 6.7 -1.1 5.8 0.8C5 2.7 3.7 3.9 1.7 5.8C-0.3 7.6 -3.2 10 -4.5 9.4C-5.9 8.7 -5.7 5 -7 1.1C-8.2 -2.7 -10.8 -6.7 -9.9 -9.9C-8.9 -13.1 -4.5 -15.4 -1 -14.7C2.5 -13.9 5 -10 6.1 -6.7Z" fill="#1d9bf0"></path></g><g transform="translate(15 516)"><path d="M16 -14.6C18.6 -9.5 17.1 -3 14.7 1.7C12.3 6.5 9.2 9.5 5.1 11.9C1 14.4 -3.9 16.3 -8.2 15C-12.6 13.7 -16.3 9.2 -16.7 4.6C-17.1 0.1 -14 -4.3 -10.7 -9.6C-7.4 -14.8 -3.7 -20.8 1.5 -22C6.7 -23.2 13.4 -19.6 16 -14.6Z" fill="#1d9bf0"></path></g><g transform="translate(270 323)"><path d="M9.9 -7.7C11.6 -5.7 11 -1.7 10.3 2.8C9.6 7.2 8.9 12.1 6.4 13.3C3.9 14.5 -0.4 12 -4.5 9.8C-8.7 7.7 -12.8 5.8 -13.5 3C-14.2 0.2 -11.5 -3.4 -8.7 -5.6C-5.9 -7.8 -2.9 -8.5 0.6 -9C4.1 -9.5 8.2 -9.6 9.9 -7.7Z" fill="#1d9bf0"></path></g><g transform="translate(418 134)"><path d="M13.6 -13.9C15.2 -8.8 12.5 -3.3 11.5 3.1C10.4 9.5 11 16.8 8.5 18.3C5.9 19.7 0.3 15.4 -5.3 12.2C-10.8 9.1 -16.3 7 -16.9 3.9C-17.5 0.9 -13.3 -3.2 -9.7 -8.8C-6.1 -14.4 -3.1 -21.4 1.5 -22.6C6 -23.8 11.9 -19 13.6 -13.9Z" fill="#1d9bf0"></path></g><g transform="translate(547 375)"><path d="M9.1 -7C11.5 -4.1 13.1 -0.4 11.8 1.6C10.5 3.6 6.2 3.8 3 4.9C-0.2 5.9 -2.4 7.6 -4.3 7.3C-6.2 7 -7.8 4.6 -8.6 1.7C-9.4 -1.1 -9.5 -4.4 -7.9 -7.1C-6.4 -9.7 -3.2 -11.8 0.1 -11.9C3.3 -11.9 6.6 -9.9 9.1 -7Z" fill="#1d9bf0"></path></g><g transform="translate(683 367)"><path d="M12.7 -9.8C14.6 -7.8 12.9 -2.6 11.4 2.1C9.9 6.8 8.6 11 5.2 13.8C1.8 16.6 -3.7 17.9 -8.4 16.2C-13.1 14.4 -16.9 9.6 -16.9 5.1C-16.9 0.6 -13.2 -3.5 -9.8 -5.8C-6.3 -8.2 -3.2 -8.8 1.1 -9.7C5.4 -10.6 10.9 -11.8 12.7 -9.8Z" fill="#1d9bf0"></path></g><g transform="translate(125 182)"><path d="M6.6 -5.7C8.2 -3.4 8.7 -0.6 8.9 3.4C9 7.5 8.9 12.8 6.5 14.3C4 15.9 -0.7 13.6 -6.4 11.5C-12.2 9.4 -18.9 7.7 -21.2 3.3C-23.4 -1.1 -21.1 -8 -16.8 -11C-12.5 -14 -6.3 -13.1 -1.9 -11.6C2.5 -10.1 5.1 -8.1 6.6 -5.7Z" fill="#1d9bf0"></path></g><g transform="translate(342 271)"><path d="M10.6 -6.7C13.9 -4.2 17 0.2 17 5.4C17 10.6 13.9 16.6 9.6 17.8C5.4 19 -0.2 15.3 -5 12.3C-9.8 9.2 -13.9 6.6 -14.1 3.8C-14.3 0.9 -10.6 -2.3 -7.6 -4.6C-4.6 -7 -2.3 -8.5 0.7 -9C3.6 -9.6 7.2 -9.1 10.6 -6.7Z" fill="#1d9bf0"></path></g><g transform="translate(916 220)"><path d="M4.7 -3.1C6.4 -1.6 8.2 0.3 8.2 2.5C8.2 4.7 6.4 7.1 4.4 7.5C2.3 8 0 6.4 -2.3 5.2C-4.6 3.9 -7 3 -8 1.1C-9 -0.8 -8.7 -3.7 -7.1 -5.2C-5.6 -6.6 -2.8 -6.5 -0.6 -6C1.5 -5.5 3 -4.5 4.7 -3.1Z" fill="#1d9bf0"></path></g><g transform="translate(652 5)"><path d="M8.9 -7.2C10.5 -5 10.1 -1.4 8.8 1C7.4 3.3 5 4.4 2.3 6.3C-0.4 8.2 -3.5 10.9 -5.9 10.4C-8.3 9.9 -10.1 6.3 -10.6 2.8C-11.1 -0.7 -10.3 -4.2 -8.3 -6.4C-6.3 -8.7 -3.2 -9.7 0.2 -9.9C3.6 -10.1 7.2 -9.4 8.9 -7.2Z" fill="#1d9bf0"></path></g><g transform="translate(486 323)"><path d="M14 -10.3C17.5 -6.8 19.3 -1 17.7 3.3C16.1 7.5 11.2 10.2 6.1 12.7C1 15.2 -4.3 17.5 -8.7 16.1C-13.1 14.7 -16.7 9.7 -17.9 4.2C-19.1 -1.4 -17.9 -7.3 -14.5 -10.8C-11.1 -14.3 -5.6 -15.3 -0.2 -15.2C5.3 -15 10.5 -13.8 14 -10.3Z" fill="#1d9bf0"></path></g><g transform="translate(318 484)"><path d="M6.7 -6.5C8.6 -3 10 -0.2 9.3 1.9C8.7 4 6 5.3 3 7.1C0.1 8.8 -3.1 10.9 -7.3 10.6C-11.6 10.3 -16.9 7.7 -17 4.7C-17 1.6 -11.8 -1.8 -8.1 -5.8C-4.4 -9.7 -2.2 -14.1 0.1 -14.2C2.4 -14.3 4.8 -10 6.7 -6.5Z" fill="#1d9bf0"></path></g><g transform="translate(475 28)"><path d="M14 -13.8C15.6 -9.2 12.5 -3.6 10.1 0.5C7.7 4.6 6.2 7.1 2.8 10.5C-0.5 13.8 -5.7 18.1 -8.3 17C-11 15.8 -11.2 9.2 -13.1 2.5C-15 -4.1 -18.5 -10.9 -16.6 -15.6C-14.7 -20.2 -7.4 -22.8 -0.6 -22.4C6.2 -21.9 12.5 -18.4 14 -13.8Z" fill="#1d9bf0"></path></g><g transform="translate(86 390)"><path d="M16.9 -15.7C19.2 -10.5 16.7 -3.6 13.9 1C11.1 5.6 8 8 4 10.9C0 13.8 -5 17.2 -10.7 16.6C-16.4 16 -22.8 11.3 -23.1 6.3C-23.4 1.3 -17.6 -4 -12.7 -9.8C-7.8 -15.5 -3.9 -21.7 1.7 -23C7.3 -24.4 14.5 -20.9 16.9 -15.7Z" fill="#1d9bf0"></path></g><g transform="translate(789 536)"><path d="M13.1 -10.8C15.9 -7 16.2 -1.6 14.7 2.7C13.2 7 9.8 10.3 5.8 12.4C1.7 14.6 -3.2 15.6 -6.8 13.9C-10.5 12.3 -13 7.9 -12.8 4.3C-12.5 0.6 -9.5 -2.3 -6.9 -6.1C-4.3 -9.8 -2.2 -14.5 1.5 -15.7C5.2 -17 10.3 -14.7 13.1 -10.8Z" fill="#1d9bf0"></path></g><g transform="translate(547 291)"><path d="M5 -4.1C7.2 -1.3 10.2 0.9 10.4 3.3C10.6 5.8 8 8.5 5.3 9.1C2.6 9.7 -0.2 8 -2.2 6.4C-4.1 4.7 -5.1 3.1 -5.7 1.1C-6.3 -0.9 -6.6 -3.1 -5.5 -5.8C-4.5 -8.4 -2.3 -11.4 -0.4 -11C1.4 -10.7 2.8 -7 5 -4.1Z" fill="#1d9bf0"></path></g><g transform="translate(650 502)"><path d="M7.2 -6.7C8 -4.8 6.3 -1.9 5.9 2C5.6 5.9 6.6 10.8 5.1 12.2C3.5 13.6 -0.5 11.4 -4.3 9.4C-8.2 7.4 -11.9 5.5 -12.7 2.7C-13.4 0 -11.2 -3.6 -8.6 -6C-6 -8.3 -3 -9.4 0.1 -9.5C3.2 -9.6 6.5 -8.7 7.2 -6.7Z" fill="#1d9bf0"></path></g><g transform="translate(11 201)"><path d="M8.5 -8C10.5 -4.2 11.4 -0.7 10.4 1.8C9.4 4.4 6.5 5.9 3.3 7.8C0.1 9.6 -3.3 11.8 -6.1 11.1C-8.9 10.3 -11 6.7 -10.6 3.7C-10.2 0.8 -7.4 -1.4 -5.2 -5.3C-3 -9.1 -1.5 -14.7 0.9 -15.3C3.2 -16 6.4 -11.9 8.5 -8Z" fill="#1d9bf0"></path></g><g transform="translate(380 329)"><path d="M8 -6.3C10.4 -3.5 12.1 -0.2 12.1 4C12.2 8.2 10.5 13.2 7.5 14.1C4.5 15 0.2 11.8 -4.4 9.5C-9 7.2 -13.8 5.7 -15.5 2.4C-17.1 -0.9 -15.6 -6.1 -12.5 -9C-9.4 -12 -4.7 -12.7 -0.9 -12C2.9 -11.2 5.7 -9 8 -6.3Z" fill="#1d9bf0"></path></g><g transform="translate(467 393)"><path d="M9.9 -8.4C11.8 -5.5 11.6 -1.5 10.7 2.3C9.7 6.1 8 9.6 5.5 10.4C3 11.2 -0.3 9.3 -2.5 7.4C-4.8 5.5 -6 3.6 -6.8 1.2C-7.6 -1.1 -8 -3.9 -6.8 -6.6C-5.6 -9.3 -2.8 -12 0.6 -12.4C4 -12.9 8 -11.2 9.9 -8.4Z" fill="#1d9bf0"></path></g><g transform="translate(62 455)"><path d="M15.4 -14.6C16.6 -10.8 11.9 -4.6 8.9 -0.5C6 3.6 4.8 5.6 1.7 9.4C-1.4 13.1 -6.5 18.6 -11.5 18.3C-16.5 18 -21.4 12 -22.1 5.9C-22.9 -0.3 -19.5 -6.5 -15.1 -11C-10.7 -15.5 -5.3 -18.3 0.9 -19C7.1 -19.7 14.2 -18.3 15.4 -14.6Z" fill="#1d9bf0"></path></g><g transform="translate(370 63)"><path d="M8.9 -6C12.7 -2.3 17.8 1.5 17.8 4.9C17.7 8.4 12.4 11.5 6.9 13.9C1.5 16.3 -4 18 -7.7 16.2C-11.5 14.3 -13.5 8.9 -14.8 3.4C-16 -2.2 -16.6 -7.9 -14 -11.4C-11.4 -14.8 -5.7 -16 -1.6 -14.7C2.5 -13.4 5 -9.7 8.9 -6Z" fill="#1d9bf0"></path></g><g transform="translate(949 124)"><path d="M5.5 -5C7.3 -2.2 8.9 0.1 9.1 3.2C9.3 6.3 8 10.2 5.9 10.6C3.7 11 0.6 8.1 -2 6.1C-4.5 4.1 -6.6 3 -7.9 0.8C-9.3 -1.5 -10 -5 -8.5 -7.7C-7.1 -10.4 -3.5 -12.4 -0.8 -11.7C1.9 -11 3.7 -7.8 5.5 -5Z" fill="#1d9bf0"></path></g><g transform="translate(179 46)"><path d="M14.9 -10.3C19 -6.8 21.7 -0.6 19.4 2.6C17.2 5.8 10.1 6 4.9 7.6C-0.4 9.1 -3.7 12 -7.6 11.7C-11.4 11.4 -15.6 8 -17.7 2.9C-19.7 -2.1 -19.5 -8.8 -16.2 -12.1C-12.9 -15.4 -6.5 -15.4 -0.5 -15C5.4 -14.6 10.9 -13.8 14.9 -10.3Z" fill="#1d9bf0"></path></g><g transform="translate(371 205)"><path d="M10.8 -7.8C12.6 -6.4 11.5 -2 10.2 1.7C8.9 5.4 7.2 8.5 5.1 8.9C2.9 9.3 0.3 7.1 -3.3 5.8C-6.8 4.5 -11.3 4 -13.5 1.2C-15.7 -1.7 -15.6 -7 -13 -8.6C-10.3 -10.2 -5.2 -8.1 -0.3 -7.8C4.5 -7.6 9.1 -9.2 10.8 -7.8Z" fill="#1d9bf0"></path></g><g transform="translate(774 192)"><path d="M8.8 -6.2C11.2 -4.1 12.7 -0.4 12.3 3.5C12 7.5 9.9 11.8 6.4 13.6C2.9 15.5 -2 14.9 -5.5 12.7C-9 10.6 -11.1 6.8 -11.1 3.5C-11.1 0.2 -9.1 -2.7 -6.9 -4.8C-4.7 -6.9 -2.3 -8.3 0.5 -8.6C3.2 -9 6.5 -8.4 8.8 -6.2Z" fill="#1d9bf0"></path></g><g transform="translate(852 343)"><path d="M8.3 -6.7C9.5 -5.1 8.5 -1.7 7.4 1.2C6.4 4.1 5.3 6.6 3.8 7C2.2 7.5 0 6 -3.3 5.1C-6.6 4.2 -11.1 3.9 -12.9 1.4C-14.7 -1.1 -13.9 -5.8 -11.3 -7.8C-8.7 -9.7 -4.4 -9 -0.4 -8.7C3.5 -8.4 7.1 -8.4 8.3 -6.7Z" fill="#1d9bf0"></path></g><g transform="translate(574 34)"><path d="M9 -6.1C11.6 -4 13.5 -0.2 12.3 1.9C11.1 4 6.8 4.6 3.1 6.3C-0.6 8.1 -3.7 11 -4.9 10.4C-6.1 9.7 -5.4 5.4 -5.3 2.3C-5.1 -0.8 -5.4 -2.7 -4.6 -4.4C-3.8 -6.1 -1.9 -7.7 0.7 -8.3C3.2 -8.8 6.4 -8.2 9 -6.1Z" fill="#1d9bf0"></path></g><g transform="translate(953 464)"><path d="M6.5 -4.5C8.5 -2.8 10 -0.1 9.6 2.3C9.1 4.6 6.6 6.5 3.9 7.6C1.2 8.7 -1.6 9 -4.4 8.1C-7.1 7.1 -9.8 5 -10.4 2.3C-11 -0.3 -9.6 -3.4 -7.5 -5.2C-5.4 -6.9 -2.7 -7.3 -0.2 -7.2C2.3 -7 4.6 -6.2 6.5 -4.5Z" fill="#1d9bf0"></path></g><g transform="translate(678 253)"><path d="M8.7 -7.1C11.1 -3.8 13 -0.2 11.9 2C10.9 4.3 6.9 5.3 4.1 5.4C1.3 5.6 -0.4 4.9 -1.6 4.1C-2.9 3.2 -3.6 2.1 -4.8 0.2C-5.9 -1.7 -7.4 -4.4 -6.7 -7.3C-6 -10.3 -3 -13.4 0.1 -13.5C3.1 -13.5 6.2 -10.5 8.7 -7.1Z" fill="#1d9bf0"></path></g><g transform="translate(24 348)"><path d="M10.4 -7.3C13.3 -4.7 15.3 -0.4 14.2 2.8C13.1 5.9 9 7.9 5.4 8.6C1.9 9.2 -0.9 8.5 -3.9 7.3C-7 6.2 -10.2 4.6 -11.7 1.6C-13.2 -1.4 -13 -5.8 -10.8 -8.2C-8.5 -10.6 -4.3 -11 -0.2 -10.8C3.8 -10.6 7.6 -9.8 10.4 -7.3Z" fill="#1d9bf0"></path></g><g transform="translate(311 409)"><path d="M8.7 -8.4C9.5 -5.8 7.4 -2.3 5.9 0.1C4.3 2.5 3.4 3.8 2.1 4.4C0.8 5 -0.8 5 -3.6 4.8C-6.5 4.5 -10.5 3.9 -12.3 1.3C-14.2 -1.4 -13.8 -6 -11.4 -9C-9 -11.9 -4.5 -13.2 -0.3 -12.9C3.9 -12.7 7.8 -11 8.7 -8.4Z" fill="#1d9bf0"></path></g><g transform="translate(412 537)"><path d="M7.5 -6.5C10.1 -2.8 12.7 0.4 12.2 2.9C11.8 5.5 8.1 7.4 4.5 9C0.8 10.7 -2.8 12 -6.1 11.1C-9.4 10.1 -12.3 6.8 -13 3.2C-13.7 -0.5 -12.1 -4.4 -9.5 -8.1C-7 -11.7 -3.5 -15.1 -0.5 -14.7C2.5 -14.3 5 -10.1 7.5 -6.5Z" fill="#1d9bf0"></path></g><g transform="translate(164 378)"><path d="M5 -4.3C6.5 -2 8 0.1 7.8 2.1C7.6 4.2 5.8 6.2 3.8 6.7C1.8 7.2 -0.3 6.2 -1.7 5C-3.1 3.7 -3.8 2.4 -4.3 0.8C-4.7 -0.8 -5.1 -2.6 -4.4 -4.7C-3.6 -6.9 -1.8 -9.4 -0.1 -9.4C1.7 -9.3 3.4 -6.7 5 -4.3Z" fill="#1d9bf0"></path></g><g transform="translate(874 277)"><path d="M11.4 -10C12.9 -7.2 10.9 -2.6 8.9 0.4C6.9 3.4 4.9 4.7 2.2 6.8C-0.4 8.9 -3.7 11.7 -7.1 11.4C-10.5 11.1 -13.9 7.5 -13.6 4.4C-13.3 1.3 -9.2 -1.4 -6.3 -4.5C-3.5 -7.6 -1.7 -11.1 1.6 -12.4C4.9 -13.6 9.9 -12.7 11.4 -10Z" fill="#1d9bf0"></path></g><g transform="translate(859 77)"><path d="M3.4 -2.5C4.2 -1.6 4.8 -0.2 5 2.1C5.2 4.3 5.1 7.3 3.4 8.9C1.6 10.4 -1.7 10.5 -4.4 9.2C-7 7.9 -9 5.2 -9.1 2.6C-9.3 0 -7.7 -2.4 -5.9 -3.6C-4.1 -4.7 -2 -4.6 -0.4 -4.3C1.2 -4 2.5 -3.5 3.4 -2.5Z" fill="#1d9bf0"></path></g><g transform="translate(209 515)"><path d="M6.2 -7C7.4 -3.5 7.2 -0.9 6.7 1.5C6.1 4 5.1 6.3 3.5 7C1.8 7.7 -0.5 6.8 -3.7 5.9C-6.9 5 -11.1 4.3 -12.7 1.6C-14.3 -1 -13.5 -5.5 -10.9 -9.4C-8.4 -13.2 -4.2 -16.3 -0.8 -15.6C2.5 -15 5 -10.5 6.2 -7Z" fill="#1d9bf0"></path></g><g transform="translate(85 106)"><path d="M6.5 -6.8C8.6 -2.6 10.5 0.1 10.2 2.8C10 5.4 7.5 8 3.5 11.7C-0.6 15.4 -6.3 20.1 -11.8 19.4C-17.4 18.7 -22.8 12.6 -23.7 6.1C-24.6 -0.3 -20.9 -7.1 -16.2 -11.9C-11.5 -16.7 -5.8 -19.7 -1.8 -18.3C2.2 -16.8 4.4 -11.1 6.5 -6.8Z" fill="#1d9bf0"></path></g><g transform="translate(495 95)"><path d="M13.1 -9.8C15.5 -7.4 14.9 -2.1 13.8 3.4C12.7 8.8 11.1 14.3 7.5 16.4C3.8 18.6 -1.9 17.3 -6.9 14.7C-11.9 12.2 -16.2 8.4 -17.6 3.6C-19.1 -1.2 -17.7 -7.1 -14.3 -9.7C-10.9 -12.3 -5.4 -11.5 0 -11.5C5.4 -11.5 10.7 -12.1 13.1 -9.8Z" fill="#1d9bf0"></path></g><g transform="translate(801 25)"><path d="M5.9 -5.6C7.3 -2.9 8 -0.4 7.4 1.3C6.7 3.1 4.6 4.2 2.2 6C-0.3 7.7 -3.1 10 -6.6 9.8C-10.1 9.6 -14.2 6.9 -14.8 3.6C-15.5 0.2 -12.6 -3.8 -9.5 -6.9C-6.5 -10 -3.2 -12.3 -0.5 -11.9C2.2 -11.5 4.4 -8.4 5.9 -5.6Z" fill="#1d9bf0"></path></g><g transform="translate(736 134)"><path d="M9.6 -8.9C12 -4.6 13.2 -0.7 13.1 4.4C13.1 9.4 11.8 15.6 8.8 16.2C5.9 16.8 1.3 11.8 -1.6 8.5C-4.5 5.1 -5.8 3.4 -8.4 -0.3C-11 -4 -15 -9.6 -13.9 -13.5C-12.7 -17.5 -6.3 -19.8 -1.4 -18.7C3.6 -17.6 7.2 -13.1 9.6 -8.9Z" fill="#1d9bf0"></path></g><g transform="translate(427 277)"><path d="M10 -7.5C12.7 -4.6 14.5 -0.5 13.5 2.8C12.6 6.1 8.9 8.6 5.5 9.5C2 10.5 -1.3 10 -4.6 8.7C-8 7.4 -11.4 5.4 -11.9 2.8C-12.5 0.1 -10.3 -3.2 -7.8 -6C-5.4 -8.9 -2.7 -11.4 0.5 -11.8C3.7 -12.2 7.3 -10.5 10 -7.5Z" fill="#1d9bf0"></path></g><g transform="translate(436 457)"><path d="M9 -7.7C11.7 -3.7 14.2 0 13.3 2.7C12.5 5.4 8.3 7.1 4.6 8.6C0.8 10 -2.6 11.3 -5.5 10.3C-8.4 9.4 -10.8 6.2 -13 1.6C-15.2 -3.1 -17.2 -9.2 -15 -13C-12.8 -16.9 -6.4 -18.5 -1.6 -17.2C3.1 -15.9 6.2 -11.7 9 -7.7Z" fill="#1d9bf0"></path></g><g transform="translate(878 159)"><path d="M4.4 -5.1C5.3 -2.4 5.2 -0.6 4.7 0.9C4.3 2.5 3.4 3.8 1.5 5.6C-0.3 7.5 -3.1 9.8 -5.1 9.3C-7.1 8.9 -8.3 5.5 -9.7 1.7C-11 -2.2 -12.4 -6.6 -10.8 -9.4C-9.2 -12.2 -4.6 -13.4 -1.4 -12.3C1.8 -11.1 3.5 -7.7 4.4 -5.1Z" fill="#1d9bf0"></path></g><g transform="translate(663 434)"><path d="M5.4 -5.3C6.4 -3.2 6 -0.9 6.2 2.7C6.4 6.3 7.1 11.3 5.4 12.6C3.7 13.9 -0.3 11.5 -2.9 9.1C-5.5 6.7 -6.6 4.2 -7.5 1.4C-8.4 -1.4 -9 -4.6 -7.8 -6.8C-6.5 -9 -3.2 -10.3 -0.5 -10C2.2 -9.6 4.5 -7.5 5.4 -5.3Z" fill="#1d9bf0"></path></g><g transform="translate(710 536)"><path d="M6.6 -3.8C9.1 -2.2 11.9 0.6 11.6 3C11.3 5.4 7.9 7.4 4.8 8.2C1.6 9.1 -1.2 8.8 -5 7.9C-8.9 7.1 -13.6 5.6 -14.1 3.3C-14.5 1 -10.7 -2.3 -7.7 -4C-4.6 -5.8 -2.3 -6 -0.1 -5.9C2.1 -5.9 4.2 -5.4 6.6 -3.8Z" fill="#1d9bf0"></path></g><g transform="translate(89 532)"><path d="M12.1 -11.1C13.8 -7.4 12.1 -2.5 10.4 1.2C8.6 4.9 6.7 7.4 3.2 10.6C-0.2 13.8 -5.3 17.6 -8.4 16.5C-11.6 15.4 -12.9 9.3 -13.3 4.1C-13.6 -1.1 -13 -5.5 -10.6 -9.4C-8.3 -13.2 -4.1 -16.5 0.5 -16.9C5.2 -17.3 10.3 -14.8 12.1 -11.1Z" fill="#1d9bf0"></path></g><g transform="translate(742 430)"><path d="M5.5 -4.5C7.5 -2 9.7 0.4 9.2 2C8.8 3.7 5.7 4.6 3.2 5.4C0.6 6.1 -1.4 6.7 -5.4 6.5C-9.4 6.4 -15.3 5.6 -16.1 3.4C-16.8 1.1 -12.4 -2.6 -8.9 -5.6C-5.3 -8.5 -2.7 -10.6 -0.4 -10.3C1.8 -9.9 3.6 -7.1 5.5 -4.5Z" fill="#1d9bf0"></path></g><g transform="translate(630 80)"><path d="M8 -3.6C11.9 -1.6 17.5 1.8 17.3 4.5C17.1 7.1 11.2 9 6.3 10.4C1.3 11.8 -2.6 12.7 -6.6 11.6C-10.6 10.5 -14.7 7.4 -16 3.2C-17.4 -1 -15.9 -6.3 -12.8 -8.1C-9.7 -10 -4.8 -8.5 -1.4 -7.4C2.1 -6.3 4.2 -5.6 8 -3.6Z" fill="#1d9bf0"></path></g><g transform="translate(510 538)"><path d="M16.9 -13.1C20.6 -8.8 21.4 -1.9 18.7 2C16 6 9.9 6.8 5.5 7.3C1.2 7.8 -1.3 7.9 -5 7.3C-8.7 6.7 -13.6 5.5 -16.3 1.5C-18.9 -2.4 -19.2 -9 -16.2 -13.1C-13.1 -17.3 -6.5 -18.9 0 -18.9C6.6 -19 13.2 -17.4 16.9 -13.1Z" fill="#1d9bf0"></path></g><g transform="translate(557 214)"><path d="M8.8 -6.4C11.3 -3.9 13.2 -0.2 13.4 4.7C13.6 9.6 12 15.7 8.6 17C5.3 18.2 0 14.6 -6.2 11.9C-12.3 9.3 -19.3 7.7 -20 4.6C-20.7 1.6 -14.9 -2.9 -10.5 -5.9C-6.2 -8.8 -3.1 -10.3 0 -10.3C3.1 -10.3 6.3 -8.9 8.8 -6.4Z" fill="#1d9bf0"></path></g><g transform="translate(884 405)"><path d="M13 -10C16.1 -6.4 17.4 -1.1 16.1 3.2C14.7 7.5 10.7 10.6 7.1 10.9C3.5 11.1 0.4 8.4 -3.3 6.6C-7 4.9 -11.3 4.2 -12.7 1.8C-14.2 -0.6 -12.7 -4.8 -10.1 -8.3C-7.5 -11.8 -3.8 -14.6 0.6 -15C4.9 -15.5 9.8 -13.6 13 -10Z" fill="#1d9bf0"></path></g><g transform="translate(17 6)"><path d="M15.2 -12.5C18.2 -8.5 17.9 -2.2 15.9 2.5C13.9 7.3 10.3 10.6 6 12.9C1.7 15.1 -3.4 16.3 -6 14.3C-8.6 12.4 -8.8 7.2 -9.7 2.4C-10.7 -2.4 -12.4 -6.8 -10.9 -10.5C-9.4 -14.2 -4.7 -17.3 0.7 -17.8C6.2 -18.4 12.3 -16.6 15.2 -12.5Z" fill="#1d9bf0"></path></g><g transform="translate(933 321)"><path d="M4.5 -3.5C6.3 -1.2 8.7 0.7 8.8 2.7C8.9 4.8 6.7 7.1 4.1 8.1C1.5 9.2 -1.4 9.1 -4.4 8.1C-7.4 7 -10.4 5.1 -10.8 2.7C-11.1 0.3 -8.8 -2.4 -6.6 -4.8C-4.3 -7.1 -2.2 -9.1 -0.4 -8.8C1.3 -8.4 2.6 -5.8 4.5 -3.5Z" fill="#1d9bf0"></path></g><g transform="translate(579 534)"><path d="M10.2 -7.5C12.3 -5.4 12.6 -1.3 10.9 1.1C9.2 3.4 5.7 3.9 3 4.6C0.3 5.2 -1.4 6 -3.4 5.6C-5.3 5.2 -7.4 3.7 -8.8 1.1C-10.1 -1.5 -10.7 -5.3 -9.1 -7.1C-7.5 -9 -3.8 -9.1 0.1 -9.2C4 -9.3 8 -9.5 10.2 -7.5Z" fill="#1d9bf0"></path></g><g transform="translate(273 239)"><path d="M13.8 -11.2C17.6 -6.3 20.2 -0.5 19.4 5C18.7 10.6 14.5 16 9.1 18.5C3.7 20.9 -2.9 20.3 -7.3 17.3C-11.7 14.3 -14 9 -14.7 3.9C-15.4 -1.2 -14.5 -6 -11.8 -10.6C-9.1 -15.3 -4.5 -19.7 0.2 -19.9C5 -20.1 10 -16 13.8 -11.2Z" fill="#1d9bf0"></path></g></g></svg>